<?xml version="1.0" standalone="no"?>
<!DOCTYPE svg PUBLIC "-//W3C//DTD SVG 20010904//EN"
 "http://www.w3.org/TR/2001/REC-SVG-20010904/DTD/svg10.dtd">
<svg version="1.0" xmlns="http://www.w3.org/2000/svg"
 width="577.000000pt" height="577.000000pt" viewBox="0 0 577.000000 577.000000"
 preserveAspectRatio="xMidYMid meet">
<metadata>
Created by potrace 1.11, written by Peter Selinger 2001-2013
</metadata>
<g transform="translate(0.000000,577.000000) scale(0.100000,-0.100000)"
fill="#000000" stroke="none">
<path d="M2379 4130 c-11 -27 -20 -52 -19 -56 1 -4 -2 -10 -7 -13 -13 -9 -54
-91 -46 -91 4 0 -3 -7 -15 -16 -12 -8 -22 -19 -22 -24 0 -22 -118 -150 -190
-205 -30 -23 -75 -52 -98 -64 l-44 -22 7 -207 c3 -114 8 -229 10 -257 2 -27 6
-88 10 -135 13 -175 61 -482 86 -547 5 -13 11 -38 14 -54 3 -17 10 -38 14 -47
5 -9 21 -46 34 -82 14 -36 33 -82 41 -102 9 -21 16 -41 15 -45 0 -3 6 -10 15
-15 9 -5 14 -13 11 -19 -4 -5 -1 -9 4 -9 6 0 11 -5 11 -12 0 -6 11 -26 25 -43
13 -18 21 -35 18 -39 -4 -3 -2 -6 3 -6 5 0 20 -18 34 -40 14 -22 28 -40 32
-40 5 0 8 -4 8 -10 0 -5 12 -22 28 -38 15 -16 46 -49 68 -73 46 -49 137 -129
162 -143 9 -5 25 -18 35 -29 9 -11 17 -17 17 -13 0 4 9 -2 20 -12 11 -10 33
-25 48 -33 15 -8 29 -17 32 -20 10 -13 204 -122 290 -164 206 -100 265 -117
322 -95 77 31 303 147 326 168 13 12 28 16 45 13 5 -1 6 3 3 8 -4 5 2 12 12
15 10 4 27 14 38 24 10 9 37 30 59 46 43 32 56 42 97 81 15 14 33 25 39 25 7
0 10 3 7 6 -3 3 8 20 25 38 59 61 117 126 117 130 0 3 17 30 39 60 21 31 44
69 51 86 7 16 16 30 21 30 5 0 9 6 9 13 0 7 12 37 26 67 48 101 116 343 139
500 14 98 35 262 40 320 3 36 8 83 11 105 5 45 15 162 18 209 1 17 4 36 6 41
3 6 5 62 5 125 l0 115 -32 15 c-18 8 -35 22 -38 31 -3 9 -31 33 -63 55 -78 53
-172 150 -180 185 -2 8 -10 21 -18 30 -8 9 -21 37 -30 62 -9 26 -20 47 -26 47
-6 0 -8 9 -5 20 3 11 1 20 -4 20 -6 0 -9 6 -7 13 1 6 -4 22 -11 35 -9 16 -18
21 -32 17 -11 -4 -25 0 -35 9 -8 9 -13 16 -11 16 3 0 2 12 -2 27 -7 26 -36 40
-47 22 -3 -5 -10 -7 -15 -4 -5 4 -9 2 -9 -3 0 -5 -10 -13 -22 -17 -13 -4 -25
-8 -28 -9 -34 -16 -57 -24 -64 -24 -5 0 -12 -5 -15 -10 -3 -5 -55 -26 -116
-47 -60 -20 -117 -40 -125 -43 -8 -3 -21 -4 -27 -3 -7 1 -13 -3 -13 -9 0 -6
-4 -8 -10 -5 -5 3 -27 1 -47 -4 -67 -17 -106 -21 -243 -21 -244 -1 -439 50
-688 181 -62 32 -114 59 -117 59 -2 0 -14 -22 -26 -50z"/>
</g>
</svg>
